<?xml version="1.0" encoding="UTF-8" standalone="no"?>
<!-- Created with Inkscape (http://www.inkscape.org/) -->

<svg
   width="210mm"
   height="297mm"
   viewBox="0 0 210 297"
   version="1.1"
   id="svg1"
   xml:space="preserve"
   inkscape:export-filename="bitmap.png"
   inkscape:export-xdpi="96"
   inkscape:export-ydpi="96"
   inkscape:version="1.3 (0e150ed6c4, 2023-07-21)"
   sodipodi:docname="cobweb.svg"
   xmlns:inkscape="http://www.inkscape.org/namespaces/inkscape"
   xmlns:sodipodi="http://sodipodi.sourceforge.net/DTD/sodipodi-0.dtd"
   xmlns="http://www.w3.org/2000/svg"
   xmlns:svg="http://www.w3.org/2000/svg"><sodipodi:namedview
     id="namedview1"
     pagecolor="#ffffff"
     bordercolor="#000000"
     borderopacity="0.25"
     inkscape:showpageshadow="2"
     inkscape:pageopacity="0.0"
     inkscape:pagecheckerboard="0"
     inkscape:deskcolor="#d1d1d1"
     inkscape:document-units="mm"
     showguides="true"
     inkscape:zoom="2.7968811"
     inkscape:cx="341.63054"
     inkscape:cy="545.42898"
     inkscape:window-width="1366"
     inkscape:window-height="753"
     inkscape:window-x="0"
     inkscape:window-y="15"
     inkscape:window-maximized="1"
     inkscape:current-layer="layer1" /><defs
     id="defs1" /><g
     inkscape:label="Layer 1"
     inkscape:groupmode="layer"
     id="layer1"><rect
       style="fill:#000000;fill-opacity:1;stroke:#fefefe;stroke-width:0.197;stroke-dasharray:none;stroke-opacity:1"
       id="rect36"
       width="22.885984"
       height="8.0693188"
       x="71.549072"
       y="138.14062"
       inkscape:export-filename="./cobweb.png"
       inkscape:export-xdpi="96"
       inkscape:export-ydpi="96" /><g
       id="g34"
       transform="matrix(0.72600184,-0.01402436,0.01563971,0.88474471,75.173794,29.858376)" /><g
       id="g3"
       style="stroke-width:0.17524388;stroke-dasharray:none"
       transform="matrix(1.4075012,0,0,1.2452067,-35.44312,-34.734733)"><path
         style="fill:#000000;fill-opacity:1;stroke:#ffffff;stroke-width:0.17524388;stroke-dasharray:none;stroke-opacity:1"
         d="m 89.159144,141.51756 0.03995,3.37768"
         id="path12"
         inkscape:transform-center-x="0.17905296"
         inkscape:transform-center-y="7.7671411"
         sodipodi:nodetypes="cc" /><path
         style="fill:#000000;fill-opacity:1;stroke:#ffffff;stroke-width:0.175244;stroke-dasharray:none;stroke-opacity:1"
         d="m 89.179786,141.50523 0.832532,3.38022"
         id="path13"
         inkscape:transform-center-x="-1.8373279"
         inkscape:transform-center-y="7.5488326"
         sodipodi:nodetypes="cc" /><path
         style="fill:#000000;fill-opacity:1;stroke:#ffffff;stroke-width:0.175244;stroke-dasharray:none;stroke-opacity:1"
         d="m 89.111275,141.52401 -0.779305,3.39518"
         id="path10"
         inkscape:transform-center-x="2.1734085"
         inkscape:transform-center-y="7.4590203"
         sodipodi:nodetypes="cc" /><path
         style="fill:none;fill-opacity:1;stroke:#ffffff;stroke-width:0.175244;stroke-dasharray:none;stroke-opacity:1"
         d="m 87.622784,144.88786 c 0.341714,-0.26713 0.510699,-0.23537 0.709186,0.0313 0.396541,-0.35516 0.64626,-0.23615 0.867122,-0.024 0.277729,-0.28102 0.549155,-0.29901 0.813226,-0.01 0.17154,-0.26042 0.485266,-0.32493 0.752544,-0.0413"
         id="path15"
         sodipodi:nodetypes="ccccc" /><path
         style="fill:none;fill-opacity:1;stroke:#ffffff;stroke-width:0.175244;stroke-dasharray:none;stroke-opacity:1"
         d="m 87.833528,144.27292 c 0.275986,-0.25052 0.494944,-0.25144 0.656237,5e-5 0.320155,-0.33322 0.522574,-0.22059 0.701849,-0.0203 0.224158,-0.26376 0.443821,-0.28 0.658256,-0.007 0.13825,-0.24463 0.358951,-0.2885 0.575967,-0.0209"
         id="path16"
         sodipodi:nodetypes="ccccc" /><path
         style="fill:none;fill-opacity:1;stroke:#ffffff;stroke-width:0.175244;stroke-dasharray:none;stroke-opacity:1"
         d="m 88.137677,143.62086 c 0.211091,-0.22663 0.379055,-0.22687 0.503414,0.002 0.244767,-0.30156 0.400324,-0.1988 0.538352,-0.0165 0.1713,-0.23878 0.339772,-0.25292 0.504949,-0.005 0.10544,-0.22166 0.282447,-0.26938 0.449591,-0.0259"
         id="path17"
         sodipodi:nodetypes="ccccc" /><path
         style="fill:none;fill-opacity:1;stroke:#ffffff;stroke-width:0.175244;stroke-dasharray:none;stroke-opacity:1"
         d="m 88.402398,143.02691 c 0.149213,-0.20865 0.269413,-0.20132 0.358689,0.0109 0.172871,-0.27778 0.316609,-0.19668 0.415423,-0.0276 0.120878,-0.22005 0.237033,-0.25435 0.355407,-0.0239 0.07412,-0.20448 0.239868,-0.23543 0.359617,-0.01"
         id="path18"
         sodipodi:nodetypes="ccccc" /></g><g
       id="g20"
       transform="matrix(0.07267521,0,0,0.06406556,77.592844,133.0696)"
       style="fill:#ffffff;fill-opacity:1;stroke-width:0.999156;stroke-dasharray:none"><path
         d="m 162.69166,116.0104 -39.10009,82.49207 h 18.95761 l 28.83141,-66.62822 24.09196,56.15808 c 1.32054,3.49996 3.07313,6.41495 5.25779,8.74494 2.18448,2.33 5.7637,3.53962 10.7377,3.62886 4.34437,0 9.67619,-1.26911 15.99549,-3.80731 l -3.94949,-11.10471 c -0.5514,0.35033 -1.62105,0.7205 -3.20897,1.11047 -1.58813,0.38999 -2.75654,0.6015 -3.50519,0.63455 -1.29192,-0.006 -2.41093,-0.27099 -3.35709,-0.79319 -0.94633,-0.52218 -1.6704,-1.26249 -2.17221,-2.22094 l -32.7809,-69.48371 c -3.10206,-7.65092 -7.01866,-14.796254 -11.74979,-21.436044 -4.73121,-6.639572 -12.39982,-10.175894 -23.00584,-10.608951 -2.99507,1.11e-4 -6.68127,0.634674 -11.05863,1.903656 l -1.97475,13.008378 c 0.20982,-0.05283 1.51809,-0.264295 3.92484,-0.634563 2.40669,-0.370045 4.65298,-0.58156 6.73883,-0.634546 6.24513,0.02649 10.73767,1.718681 13.47767,5.07643 2.73995,3.35795 5.35649,8.22285 7.84965,14.59475 z"
         id="text2407"
         style="font-style:normal;font-variant:normal;font-weight:normal;font-stretch:normal;font-size:100px;font-family:FreeSans;-inkscape-font-specification:FreeSans;fill:#ffffff;fill-opacity:1;stroke:none;stroke-width:0.999156;stroke-linecap:butt;stroke-linejoin:miter;stroke-dasharray:none;stroke-opacity:1"
         sodipodi:nodetypes="cccccscccscsccscccscsc" /></g><text
       xml:space="preserve"
       style="font-style:normal;font-variant:normal;font-weight:normal;font-stretch:normal;font-size:5.9373px;font-family:'Black Spider';-inkscape-font-specification:'Black Spider';fill:#ffffff;stroke:#ffffff;stroke-width:0.0889807"
       x="69.340973"
       y="150.64821"
       id="text1"
       transform="scale(1.0375267,0.96383061)"><tspan
         sodipodi:role="line"
         id="tspan1"
         style="font-size:5.9373px;stroke-width:0.0889807"
         x="69.340973"
         y="150.64821">Cobweb</tspan></text><text
       xml:space="preserve"
       style="font-style:normal;font-variant:normal;font-weight:normal;font-stretch:normal;font-size:3.88056px;font-family:ProggyTinyTT;-inkscape-font-specification:ProggyTinyTT;fill:#ffffff;stroke:none;stroke-width:0.456768;stroke-dasharray:none"
       x="69.599724"
       y="145.43506"
       id="text2"
       transform="scale(1.0375267,0.96383061)"><tspan
         sodipodi:role="line"
         id="tspan2"
         style="font-size:3.88056px;stroke:none;stroke-width:0.456768"
         x="69.599724"
         y="145.43506">made with</tspan></text></g></svg>
